# xmcd
#
# Track frame offsets:
#	150
#	16312
#	33375
#	52200
#	73462
#	91800
#	107437
#	125737
#	140287
#	155175
#	173275
#
# Disc length: 2520 seconds
# Revision: 0
# Processed by: cddbd v1.5.2PL0 Copyright (c) Steve Scherf et al.
# Submitted via: dBpowerAMP V12.0
#
DISCID=9509d60b
DTITLE=First Aid Kit - Stay Gold
DYEAR=2014
DGENRE=Folk-Rock
TTITLE0=My Silver Lining
TTITLE1=Master Pretender
TTITLE2=Stay Gold
TTITLE3=Cedar Lane
TTITLE4=Shattered and Hollow
TTITLE5=The Bell
TTITLE6=Waitress Song
TTITLE7=Fleeting One
TTITLE8=Heaven Knows
TTITLE9=A Long Time Ago
TTITLE10=Brother (Bonus Track)
EXTD=
EXTT0=
EXTT1=
EXTT2=
EXTT3=
EXTT4=
EXTT5=
EXTT6=
EXTT7=
EXTT8=
EXTT9=
EXTT10=
PLAYORDER=
